<mxfile host="app.diagrams.net" modified="2022-11-14T23:14:44.638Z" agent="5.0 (Windows NT 10.0; Win64; x64) AppleWebKit/537.36 (KHTML, like Gecko) Chrome/106.0.0.0 Safari/537.36 OPR/92.0.0.0" etag="2qdMuHW5TlKZ5y6AaQMz" version="20.5.3" type="github">
  <diagram id="sXNS2egXsFtvyeVg9FrO" name="Página-1">
    <mxGraphModel dx="1067" dy="452" grid="1" gridSize="10" guides="1" tooltips="1" connect="1" arrows="1" fold="1" page="1" pageScale="1" pageWidth="827" pageHeight="1169" math="0" shadow="0">
      <root>
        <mxCell id="0" />
        <mxCell id="1" parent="0" />
        <mxCell id="wU9qWkXsunXX18twAaVh-1" style="edgeStyle=orthogonalEdgeStyle;rounded=0;html=1;labelBackgroundColor=none;startArrow=none;startFill=0;startSize=5;endArrow=classicThin;endFill=1;endSize=5;jettySize=auto;orthogonalLoop=1;strokeWidth=1;fontFamily=Verdana;fontSize=12" parent="1" edge="1">
          <mxGeometry relative="1" as="geometry">
            <mxPoint x="410" y="140" as="targetPoint" />
            <mxPoint x="410" y="100" as="sourcePoint" />
          </mxGeometry>
        </mxCell>
        <mxCell id="wU9qWkXsunXX18twAaVh-2" value="" style="ellipse;whiteSpace=wrap;html=1;rounded=0;shadow=0;comic=0;labelBackgroundColor=none;strokeWidth=1;fillColor=#000000;fontFamily=Verdana;fontSize=12;align=center;" parent="1" vertex="1">
          <mxGeometry x="390" y="60" width="40" height="40" as="geometry" />
        </mxCell>
        <mxCell id="wU9qWkXsunXX18twAaVh-26" value="Informar tempo de voo.&amp;nbsp;" style="rounded=0;whiteSpace=wrap;html=1;" parent="1" vertex="1">
          <mxGeometry x="300" y="220" width="100" height="50" as="geometry" />
        </mxCell>
        <mxCell id="wU9qWkXsunXX18twAaVh-28" value="Informar horário de voo.&amp;nbsp;" style="rounded=0;whiteSpace=wrap;html=1;" parent="1" vertex="1">
          <mxGeometry x="170" y="220" width="100" height="50" as="geometry" />
        </mxCell>
        <mxCell id="wU9qWkXsunXX18twAaVh-160" value="" style="whiteSpace=wrap;html=1;rounded=0;shadow=0;comic=0;labelBackgroundColor=none;strokeWidth=1;fillColor=#000000;fontFamily=Verdana;fontSize=12;align=center;rotation=0;" parent="1" vertex="1">
          <mxGeometry x="336.5" y="370" width="147" height="10" as="geometry" />
        </mxCell>
        <mxCell id="wU9qWkXsunXX18twAaVh-170" value="Informar altitude máxima do avião.&amp;nbsp;" style="rounded=0;whiteSpace=wrap;html=1;" parent="1" vertex="1">
          <mxGeometry x="430" y="220" width="100" height="50" as="geometry" />
        </mxCell>
        <mxCell id="wU9qWkXsunXX18twAaVh-171" value="Informar distância até o destino" style="rounded=0;whiteSpace=wrap;html=1;" parent="1" vertex="1">
          <mxGeometry x="610" y="220" width="100" height="50" as="geometry" />
        </mxCell>
        <mxCell id="wU9qWkXsunXX18twAaVh-179" value="" style="whiteSpace=wrap;html=1;rounded=0;shadow=0;comic=0;labelBackgroundColor=none;strokeWidth=1;fillColor=#000000;fontFamily=Verdana;fontSize=12;align=center;rotation=0;" parent="1" vertex="1">
          <mxGeometry x="336.5" y="140" width="147" height="10" as="geometry" />
        </mxCell>
        <mxCell id="wU9qWkXsunXX18twAaVh-183" value="" style="endArrow=classic;html=1;rounded=0;entryX=0.5;entryY=0;entryDx=0;entryDy=0;exitX=0.092;exitY=1;exitDx=0;exitDy=0;exitPerimeter=0;" parent="1" source="wU9qWkXsunXX18twAaVh-179" target="wU9qWkXsunXX18twAaVh-28" edge="1">
          <mxGeometry width="50" height="50" relative="1" as="geometry">
            <mxPoint x="180" y="190" as="sourcePoint" />
            <mxPoint x="230" y="140" as="targetPoint" />
          </mxGeometry>
        </mxCell>
        <mxCell id="wU9qWkXsunXX18twAaVh-184" value="" style="endArrow=classic;html=1;rounded=0;exitX=0.167;exitY=1.1;exitDx=0;exitDy=0;exitPerimeter=0;" parent="1" source="wU9qWkXsunXX18twAaVh-179" edge="1">
          <mxGeometry width="50" height="50" relative="1" as="geometry">
            <mxPoint x="340" y="210" as="sourcePoint" />
            <mxPoint x="360" y="220" as="targetPoint" />
          </mxGeometry>
        </mxCell>
        <mxCell id="wU9qWkXsunXX18twAaVh-188" value="" style="endArrow=classic;html=1;rounded=0;exitX=0.167;exitY=1.1;exitDx=0;exitDy=0;exitPerimeter=0;" parent="1" edge="1">
          <mxGeometry width="50" height="50" relative="1" as="geometry">
            <mxPoint x="465.049" y="150" as="sourcePoint" />
            <mxPoint x="464" y="219" as="targetPoint" />
          </mxGeometry>
        </mxCell>
        <mxCell id="wU9qWkXsunXX18twAaVh-189" value="" style="endArrow=classic;html=1;rounded=0;entryX=0.5;entryY=0;entryDx=0;entryDy=0;exitX=0.956;exitY=0.9;exitDx=0;exitDy=0;exitPerimeter=0;" parent="1" source="wU9qWkXsunXX18twAaVh-179" edge="1">
          <mxGeometry width="50" height="50" relative="1" as="geometry">
            <mxPoint x="540.0239999999999" y="160" as="sourcePoint" />
            <mxPoint x="610" y="220" as="targetPoint" />
          </mxGeometry>
        </mxCell>
        <mxCell id="wU9qWkXsunXX18twAaVh-194" value="" style="endArrow=classic;html=1;rounded=0;exitX=0.5;exitY=1;exitDx=0;exitDy=0;entryX=0.058;entryY=-0.2;entryDx=0;entryDy=0;entryPerimeter=0;" parent="1" source="wU9qWkXsunXX18twAaVh-28" target="wU9qWkXsunXX18twAaVh-160" edge="1">
          <mxGeometry width="50" height="50" relative="1" as="geometry">
            <mxPoint x="180" y="380" as="sourcePoint" />
            <mxPoint x="230" y="330" as="targetPoint" />
          </mxGeometry>
        </mxCell>
        <mxCell id="wU9qWkXsunXX18twAaVh-195" value="" style="endArrow=classic;html=1;rounded=0;exitX=0.6;exitY=1;exitDx=0;exitDy=0;exitPerimeter=0;entryX=0.16;entryY=-0.3;entryDx=0;entryDy=0;entryPerimeter=0;" parent="1" source="wU9qWkXsunXX18twAaVh-26" target="wU9qWkXsunXX18twAaVh-160" edge="1">
          <mxGeometry width="50" height="50" relative="1" as="geometry">
            <mxPoint x="340" y="360" as="sourcePoint" />
            <mxPoint x="390" y="310" as="targetPoint" />
          </mxGeometry>
        </mxCell>
        <mxCell id="wU9qWkXsunXX18twAaVh-196" value="" style="endArrow=classic;html=1;rounded=0;exitX=0.4;exitY=1.06;exitDx=0;exitDy=0;exitPerimeter=0;entryX=0.908;entryY=0;entryDx=0;entryDy=0;entryPerimeter=0;" parent="1" source="wU9qWkXsunXX18twAaVh-170" target="wU9qWkXsunXX18twAaVh-160" edge="1">
          <mxGeometry width="50" height="50" relative="1" as="geometry">
            <mxPoint x="460" y="360" as="sourcePoint" />
            <mxPoint x="510" y="310" as="targetPoint" />
          </mxGeometry>
        </mxCell>
        <mxCell id="wU9qWkXsunXX18twAaVh-197" value="" style="endArrow=classic;html=1;rounded=0;exitX=0.5;exitY=1;exitDx=0;exitDy=0;entryX=0.956;entryY=-0.2;entryDx=0;entryDy=0;entryPerimeter=0;" parent="1" target="wU9qWkXsunXX18twAaVh-160" edge="1">
          <mxGeometry width="50" height="50" relative="1" as="geometry">
            <mxPoint x="610" y="270" as="sourcePoint" />
            <mxPoint x="670" y="310" as="targetPoint" />
          </mxGeometry>
        </mxCell>
        <mxCell id="wU9qWkXsunXX18twAaVh-198" value="" style="endArrow=classic;html=1;rounded=0;exitX=0.5;exitY=1;exitDx=0;exitDy=0;" parent="1" source="wU9qWkXsunXX18twAaVh-160" edge="1">
          <mxGeometry width="50" height="50" relative="1" as="geometry">
            <mxPoint x="442.97" y="430" as="sourcePoint" />
            <mxPoint x="410" y="440" as="targetPoint" />
          </mxGeometry>
        </mxCell>
        <mxCell id="wU9qWkXsunXX18twAaVh-201" value="Informar ao usuário rota de voo&amp;nbsp;" style="rounded=0;whiteSpace=wrap;html=1;" parent="1" vertex="1">
          <mxGeometry x="364" y="690" width="100" height="50" as="geometry" />
        </mxCell>
        <mxCell id="wU9qWkXsunXX18twAaVh-203" value="" style="endArrow=classic;html=1;rounded=0;exitX=0.5;exitY=1;exitDx=0;exitDy=0;" parent="1" edge="1">
          <mxGeometry width="50" height="50" relative="1" as="geometry">
            <mxPoint x="413.5" y="740" as="sourcePoint" />
            <mxPoint x="413.5" y="800" as="targetPoint" />
          </mxGeometry>
        </mxCell>
        <mxCell id="wU9qWkXsunXX18twAaVh-204" value="" style="shape=mxgraph.bpmn.shape;html=1;verticalLabelPosition=bottom;labelBackgroundColor=#ffffff;verticalAlign=top;perimeter=ellipsePerimeter;outline=end;symbol=terminate;rounded=0;shadow=0;comic=0;strokeWidth=1;fontFamily=Verdana;fontSize=12;align=center;" parent="1" vertex="1">
          <mxGeometry x="394" y="800" width="40" height="40" as="geometry" />
        </mxCell>
        <mxCell id="wU9qWkXsunXX18twAaVh-205" value="" style="rhombus;whiteSpace=wrap;html=1;" parent="1" vertex="1">
          <mxGeometry x="390" y="440" width="40" height="40" as="geometry" />
        </mxCell>
        <mxCell id="wU9qWkXsunXX18twAaVh-206" value="&#xa;&lt;span style=&quot;color: rgb(0, 0, 0); font-family: Helvetica; font-size: 12px; font-style: normal; font-variant-ligatures: normal; font-variant-caps: normal; font-weight: 400; letter-spacing: normal; orphans: 2; text-align: center; text-indent: 0px; text-transform: none; widows: 2; word-spacing: 0px; -webkit-text-stroke-width: 0px; background-color: rgb(248, 249, 250); text-decoration-thickness: initial; text-decoration-style: initial; text-decoration-color: initial; float: none; display: inline !important;&quot;&gt;Traçar rota de voo.&amp;nbsp;&lt;/span&gt;&#xa;&#xa;" style="rounded=0;whiteSpace=wrap;html=1;" parent="1" vertex="1">
          <mxGeometry x="354" y="540" width="120" height="60" as="geometry" />
        </mxCell>
        <mxCell id="wU9qWkXsunXX18twAaVh-207" value="Informe os dados novamente para checar disponibilidade.&amp;nbsp;" style="rounded=0;whiteSpace=wrap;html=1;" parent="1" vertex="1">
          <mxGeometry x="540" y="435" width="120" height="60" as="geometry" />
        </mxCell>
        <mxCell id="wU9qWkXsunXX18twAaVh-210" value="[RotaDisponivel]" style="text;html=1;align=center;verticalAlign=middle;resizable=0;points=[];autosize=1;strokeColor=none;fillColor=none;" parent="1" vertex="1">
          <mxGeometry x="304" y="490" width="110" height="30" as="geometry" />
        </mxCell>
        <mxCell id="wU9qWkXsunXX18twAaVh-211" value="[else]" style="text;html=1;align=center;verticalAlign=middle;resizable=0;points=[];autosize=1;strokeColor=none;fillColor=none;" parent="1" vertex="1">
          <mxGeometry x="455" y="435" width="50" height="30" as="geometry" />
        </mxCell>
        <mxCell id="wU9qWkXsunXX18twAaVh-220" value="" style="endArrow=classic;html=1;rounded=0;entryX=-0.017;entryY=0.417;entryDx=0;entryDy=0;entryPerimeter=0;exitX=1;exitY=0.5;exitDx=0;exitDy=0;" parent="1" source="wU9qWkXsunXX18twAaVh-205" target="wU9qWkXsunXX18twAaVh-207" edge="1">
          <mxGeometry width="50" height="50" relative="1" as="geometry">
            <mxPoint x="460" y="500" as="sourcePoint" />
            <mxPoint x="510" y="450" as="targetPoint" />
          </mxGeometry>
        </mxCell>
        <mxCell id="wU9qWkXsunXX18twAaVh-224" value="" style="endArrow=classic;html=1;rounded=0;exitX=0.5;exitY=0;exitDx=0;exitDy=0;entryX=1;entryY=1;entryDx=0;entryDy=0;" parent="1" source="wU9qWkXsunXX18twAaVh-207" target="wU9qWkXsunXX18twAaVh-160" edge="1">
          <mxGeometry width="50" height="50" relative="1" as="geometry">
            <mxPoint x="580" y="440" as="sourcePoint" />
            <mxPoint x="630" y="390" as="targetPoint" />
          </mxGeometry>
        </mxCell>
        <mxCell id="wU9qWkXsunXX18twAaVh-225" value="" style="endArrow=classic;html=1;rounded=0;entryX=0.5;entryY=0;entryDx=0;entryDy=0;exitX=0.5;exitY=1;exitDx=0;exitDy=0;" parent="1" source="wU9qWkXsunXX18twAaVh-206" target="wU9qWkXsunXX18twAaVh-201" edge="1">
          <mxGeometry width="50" height="50" relative="1" as="geometry">
            <mxPoint x="330" y="620" as="sourcePoint" />
            <mxPoint x="380" y="570" as="targetPoint" />
          </mxGeometry>
        </mxCell>
        <mxCell id="wU9qWkXsunXX18twAaVh-226" value="" style="endArrow=classic;html=1;rounded=0;exitX=0.5;exitY=1;exitDx=0;exitDy=0;" parent="1" source="wU9qWkXsunXX18twAaVh-205" edge="1">
          <mxGeometry width="50" height="50" relative="1" as="geometry">
            <mxPoint x="320" y="510" as="sourcePoint" />
            <mxPoint x="410" y="540" as="targetPoint" />
          </mxGeometry>
        </mxCell>
      </root>
    </mxGraphModel>
  </diagram>
</mxfile>
